<?xml version="1.0" standalone="no"?>
<!DOCTYPE svg PUBLIC "-//W3C//DTD SVG 20010904//EN"
 "http://www.w3.org/TR/2001/REC-SVG-20010904/DTD/svg10.dtd">
<svg version="1.0" xmlns="http://www.w3.org/2000/svg"
 width="369.000000pt" height="160.000000pt" viewBox="0 0 369.000000 160.000000"
 preserveAspectRatio="xMidYMid meet">

<g transform="translate(0.000000,160.000000) scale(0.100000,-0.100000)"
fill="#000000" stroke="none">
<path d="M240 1567 c-91 -26 -164 -89 -204 -176 -15 -34 -20 -66 -20 -126 0
-126 6 -134 374 -500 211 -209 329 -334 341 -360 64 -137 -57 -284 -203 -244
-33 8 -64 32 -137 104 l-94 92 16 42 c22 54 21 93 -2 140 -25 48 -60 71 -119
77 -92 10 -162 -56 -162 -153 0 -48 4 -58 38 -94 43 -47 86 -60 150 -46 l43 9
99 -95 c111 -107 140 -121 235 -115 81 5 134 39 170 111 29 59 32 120 10 175
-11 25 -128 150 -354 377 -312 314 -340 344 -356 393 -70 216 121 411 339 348
50 -15 71 -30 151 -107 50 -49 96 -89 100 -89 4 0 47 38 95 84 123 119 206
147 327 111 109 -32 185 -137 186 -255 1 -78 -23 -136 -82 -197 -40 -43 -40
-43 -113 -43 l-74 0 -32 65 c-17 36 -36 65 -42 65 -6 0 -34 -47 -62 -105 -32
-65 -58 -105 -68 -105 -8 0 -24 17 -35 37 -11 20 -25 38 -31 40 -6 2 -19 -15
-29 -37 -28 -63 -44 -53 -103 65 -28 58 -58 105 -65 105 -7 0 -27 -29 -45 -65
l-31 -64 -68 -3 c-52 -2 -68 -6 -68 -18 0 -12 17 -16 81 -18 l81 -3 18 41 c10
22 24 40 32 40 7 0 37 -47 65 -105 29 -58 58 -105 65 -105 7 0 22 18 33 40 11
22 26 40 34 40 7 0 21 -18 31 -40 10 -22 24 -40 31 -40 7 0 37 46 67 103 29
56 60 102 68 102 8 0 23 -17 34 -37 l20 -38 91 0 91 0 47 50 c26 28 59 76 73
106 22 49 25 66 21 138 -5 93 -27 144 -85 202 -58 59 -134 88 -223 88 -102 -1
-153 -25 -251 -121 l-78 -76 -78 73 c-43 39 -99 82 -124 95 -58 30 -157 40
-219 22z m22 -1026 c50 -56 31 -143 -37 -175 -90 -43 -186 45 -155 140 26 78
135 98 192 35z"/>
</g>
</svg>
